<svg width="81" height="83" viewBox="0 0 81 83" fill="none" xmlns="http://www.w3.org/2000/svg">
<path d="M5.86595 49.6896C5.62656 48.9096 5.60376 47.8968 5.86595 47.0236C5.43276 47.3263 4.97677 47.5824 4.50939 47.792C4.64618 48.1529 4.73737 48.5138 4.78297 48.8979C5.18196 48.9911 5.35298 50.0505 5.38718 50.2833C5.38718 50.3532 5.28461 50.6326 5.27321 50.5511C5.22762 50.26 5.19339 49.969 5.10219 49.6779C5.05659 49.5266 4.954 49.4102 4.8172 49.3287C4.8172 49.6896 4.71457 50.2833 4.28138 50.0272C3.95079 49.8293 4.24719 49.2239 4.42958 49.0493C4.50938 48.9678 4.57778 48.9212 4.64618 48.8979C4.58918 48.5487 4.47522 48.1994 4.32702 47.8735C3.75704 48.1063 3.18706 48.246 2.61708 48.2926C1.24912 48.3857 -0.654643 46.5347 0.314327 45.1144C1.63669 43.1818 3.57465 45.5218 4.11043 46.9305C4.17883 47.0469 4.23579 47.1633 4.29279 47.2797C5.02237 47.0003 5.75199 46.5463 6.40177 46.0224C6.53856 45.8478 6.69815 45.6965 6.89194 45.58C6.91474 45.5568 6.94895 45.5451 6.97175 45.5335C7.43914 45.0911 7.87229 44.6138 8.22568 44.1365C9.50244 42.4135 9.75328 40.2481 9.19469 38.2108C9.0807 40.1317 8.48787 42.1341 6.86912 43.24C5.02238 44.4974 2.62845 43.5893 1.52269 41.8081C0.679112 40.446 0.587905 38.3738 2.08126 37.4424C2.98183 36.8836 4.21304 36.9535 4.97681 37.7102C5.78619 38.5135 5.51255 39.7242 4.78297 40.446C4.49798 40.7254 4.44103 40.0851 4.62343 39.8989C5.77479 38.758 4.24722 37.6753 3.17565 37.7568C2.48027 37.8033 1.7963 38.106 1.47711 38.7696C0.895731 39.9803 1.8875 41.5636 2.75387 42.3203C3.98503 43.403 5.9572 43.3565 7.19976 42.3203C8.52212 41.2027 8.81845 39.1421 8.78425 37.489C8.78425 37.4541 8.78428 37.4075 8.80708 37.3726C7.62151 35.929 6.45873 34.4971 5.79755 32.7042C5.01098 30.5272 4.28139 28.1639 4.64618 25.8239C4.93117 23.9263 6.17377 22.3547 7.82672 21.4932C9.00089 20.8762 10.3802 20.8646 11.5088 21.5514C12.4094 22.0869 13.1846 23.1813 13.1846 24.2756C13.1846 24.9159 12.9908 25.4514 12.6716 25.8589C12.6602 25.9287 12.6373 25.9869 12.6259 26.0219C12.1243 26.9532 11.2124 28.0242 10.1294 28.1639C9.16043 28.292 8.00911 27.6983 7.74692 26.7087C7.71272 26.5574 7.94067 25.9869 7.98627 26.1616C8.22566 27.0929 9.26309 27.4654 10.1181 27.512C10.8134 27.5469 11.4746 27.0463 11.9761 26.4642C11.1326 26.9532 9.99265 26.9881 9.03508 26.5574C8.30551 26.2314 7.80388 25.5795 7.78108 24.7529C7.76968 23.9729 8.1687 23.0416 8.95528 22.832C9.55946 22.669 10.1978 23.2278 10.3802 23.775C10.6424 24.5317 9.95847 25.0207 9.33148 25.1604C9.02369 25.2302 9.10348 24.555 9.38847 24.4851C9.82166 24.392 10.1066 24.2057 9.74186 23.8099C9.55946 23.612 9.28585 23.4956 9.01226 23.484C7.9065 23.4607 8.21431 25.1138 8.75009 25.5911C9.91286 26.6389 12.5462 26.4177 12.7286 24.5434C12.8312 23.484 11.8394 22.5293 11.0414 22.052C9.91287 21.3768 8.49928 21.761 7.45052 22.3896C4.8286 23.9263 4.74883 27.0347 5.41 29.7123C5.99139 32.0872 6.92613 34.1245 8.44228 36.0105C9.76464 37.6403 11.1326 39.1771 11.9534 41.1445C13.3213 44.4391 13.5037 49.6547 9.84441 51.4475C8.20286 52.2508 6.42454 51.4475 5.87736 49.7245L5.86595 49.6896ZM4.69182 49.4917C4.69182 49.4218 4.69182 49.352 4.69182 49.2821C4.20164 49.1308 4.69182 50.3881 4.69182 49.4917ZM10.1408 50.586C12.3865 49.317 12.5461 46.3368 12.2041 44.0433C11.8964 41.9012 10.9046 40.0851 9.62782 38.4203C9.99261 40.3994 9.62785 42.4018 8.59048 44.1597C8.37389 44.5206 8.12311 44.8815 7.82672 45.2308C8.84129 45.126 9.86725 45.8012 10.3118 46.8024C10.916 48.1296 10.1979 49.2705 8.7615 49.2239C8.43091 49.2123 8.5335 48.5371 8.81849 48.5487C9.49107 48.572 10.2434 48.409 10.0268 47.5591C9.85585 46.8956 9.29729 46.3251 8.69311 46.0341C6.91476 45.1842 6.01415 47.2681 6.16235 48.735C6.37894 50.8654 8.40806 51.5639 10.1294 50.5976L10.1408 50.586Z" fill="#F5BC00"/>
<path d="M9.82202 52.2972C13.4813 54.1017 13.2989 59.3172 11.9309 62.6002C11.1102 64.5793 9.74218 66.1044 8.41982 67.7342C6.90367 69.6202 5.96893 71.6575 5.38754 74.0324C4.72637 76.6984 4.80614 79.8068 7.42806 81.3551C8.47682 81.9721 9.90181 82.3563 11.019 81.6927C11.8283 81.2038 12.8087 80.2608 12.7061 79.2014C12.5237 77.3271 9.89039 77.1175 8.72763 78.1653C8.20325 78.6426 7.88404 80.2957 8.9898 80.2724C9.26339 80.2724 9.5256 80.156 9.71939 79.9465C10.0842 79.5506 9.7992 79.3644 9.36601 79.2712C9.08102 79.213 9.00123 78.5262 9.30902 78.596C9.936 78.7357 10.6086 79.2247 10.3578 79.9814C10.1754 80.5285 9.537 81.0873 8.93282 80.9244C8.14624 80.7148 7.73589 79.7835 7.75869 79.0035C7.78149 78.1769 8.28305 77.525 9.01262 77.199C9.98159 76.7682 11.1102 76.8032 11.9538 77.2921C11.4522 76.71 10.791 76.2094 10.0956 76.2444C9.24063 76.2793 8.21467 76.6635 7.96387 77.5948C7.91828 77.7694 7.67886 77.199 7.72446 77.0477C7.98665 76.0581 9.13804 75.4644 10.107 75.5924C11.19 75.7321 12.102 76.8032 12.6035 77.7345C12.6149 77.7578 12.6377 77.816 12.6491 77.8859C12.9683 78.2933 13.1621 78.8172 13.1621 79.4691C13.1621 80.5635 12.3755 81.6578 11.4863 82.1933C10.3464 82.8685 8.97843 82.8569 7.80426 82.2399C6.15131 81.3784 4.90878 79.8068 4.62379 77.9091C4.2704 75.5691 4.98859 73.1942 5.77516 71.0289C6.42494 69.2244 7.59905 67.8041 8.78462 66.3605C8.77322 66.3139 8.76186 66.279 8.76186 66.2441C8.79606 64.6026 8.48826 62.542 7.1773 61.4127C5.94614 60.365 3.97397 60.3184 2.73141 61.4127C1.86504 62.1695 0.873272 63.7527 1.45465 64.9635C1.77384 65.6271 2.45781 65.9298 3.15319 65.9763C4.22476 66.0578 5.75233 64.9751 4.60097 63.8342C4.41857 63.648 4.47559 63.0077 4.76058 63.2871C5.49015 64.0089 5.76373 65.2196 4.95435 66.0229C4.20198 66.7796 2.97084 66.8495 2.05887 66.2907C0.565515 65.3593 0.656723 63.2871 1.5003 61.925C2.60606 60.1438 4.99992 59.2357 6.84666 60.4931C8.46541 61.599 9.05824 63.6014 9.17223 65.5223C9.73082 63.4966 9.47998 61.3196 8.20322 59.5966C7.84983 59.1193 7.42807 58.642 6.94929 58.1996C6.91509 58.1763 6.89228 58.1647 6.86948 58.1531C6.68709 58.025 6.5275 57.8737 6.37931 57.7107C5.71813 57.1751 4.99998 56.7328 4.2704 56.4534C4.2134 56.5698 4.15637 56.6862 4.08797 56.8026C3.55219 58.2113 1.60283 60.5513 0.291867 58.6187C-0.677102 57.1984 1.21526 55.359 2.59462 55.4405C3.1646 55.4754 3.74598 55.6268 4.30456 55.8596C4.45276 55.522 4.56679 55.1844 4.62379 54.8351C4.55539 54.8119 4.48699 54.7653 4.40719 54.6838C4.2248 54.5092 3.9398 53.9038 4.25899 53.7059C4.70358 53.4381 4.79474 54.0435 4.79474 54.4044C4.92014 54.3229 5.02273 54.2181 5.07973 54.0551C5.17093 53.7641 5.20516 53.4731 5.25075 53.182C5.26215 53.1005 5.37612 53.3799 5.36472 53.4614C5.31912 53.7059 5.15956 54.7537 4.76058 54.8468C4.71498 55.2193 4.61239 55.5919 4.487 55.9528C4.95438 56.1623 5.41037 56.4184 5.84356 56.7211C5.56997 55.8596 5.59277 54.8351 5.84356 54.0551C6.37934 52.3205 8.15766 51.5172 9.81061 52.3205L9.82202 52.2972ZM4.69218 54.4393C4.69218 54.3695 4.69218 54.2996 4.69218 54.2298C4.69218 53.3334 4.1906 54.5907 4.69218 54.4393ZM6.17412 54.9865C6.02593 56.4534 6.92647 58.5256 8.70481 57.6757C9.30899 57.3847 9.86762 56.8143 10.0386 56.1507C10.2552 55.3008 9.50284 55.1378 8.83026 55.1611C8.54527 55.1611 8.44262 54.5092 8.7732 54.4975C10.2096 54.451 10.9164 55.5919 10.3236 56.9074C9.86762 57.9086 8.85306 58.5838 7.8385 58.479C8.13489 58.8283 8.38566 59.1892 8.60225 59.5501C9.65102 61.308 10.0044 63.3104 9.63959 65.2895C10.9163 63.6247 11.9081 61.8086 12.2159 59.6665C12.5465 57.3731 12.3983 54.3928 10.1526 53.1238C8.43124 52.1575 6.39073 52.856 6.18553 54.9865H6.17412Z" fill="#F5BC00"/>
<path d="M13.6292 51.8432C13.6292 51.8432 12.6716 51.3892 12.4892 51.7035C12.3068 52.0179 12.0332 52.4835 12.1472 52.5185C12.2498 52.5534 12.3752 52.5883 12.3752 52.5883L12.1472 53.38L12.6602 53.5313L12.7514 54.0785L13.1162 54.1832L13.1504 54.451L13.538 54.5674L14.2561 54.7886L14.3132 54.6023L14.6209 54.8934L14.9287 54.614L15.6697 54.8701L15.7837 54.4743C15.7837 54.4743 16.3879 54.7071 16.7869 54.6023C17.1859 54.4976 17.3227 54.2065 17.6533 54.4161C17.9839 54.6256 17.3797 54.1832 17.2885 53.8107C17.1973 53.4382 16.7071 53.0074 16.7071 53.0074L17.2087 52.9259L17.3341 52.6L17.7217 52.3438L17.9953 51.7734L18.873 51.3543L17.9383 50.8188L18.0067 50.5859L17.4139 50.4113L17.5051 50.2716L16.9579 50.1086L17.0947 49.8409L16.4221 49.6429L16.7755 48.8862L15.1796 48.9561L14.8261 48.9095L14.3474 49.7943L13.6862 48.991L13.3442 49.5731L12.8882 49.7244L12.5576 50.1086L12.1586 50.4579L12.2954 51.005L12.1701 51.4474L13.6064 51.8782L13.6292 51.8432Z" fill="#F5BC00"/>
<path d="M52.9015 5.96212C53.6652 5.71765 54.657 5.69436 55.512 5.96212C55.2156 5.51974 54.9648 5.05407 54.7596 4.57675C54.4062 4.71645 54.0528 4.80959 53.6766 4.85616C53.5854 5.26362 52.5481 5.43824 52.3201 5.48481C52.2517 5.48481 51.9781 5.38003 52.0465 5.35675C52.3315 5.31018 52.6165 5.27526 52.9015 5.18213C53.0497 5.12392 53.1636 5.03078 53.2434 4.89108C52.8901 4.89108 52.3087 4.79795 52.5709 4.34392C52.7647 4.00631 53.3574 4.30899 53.5284 4.48362C53.6082 4.56511 53.6538 4.63496 53.6766 4.70481C54.0186 4.6466 54.3606 4.53019 54.6798 4.37884C54.4518 3.79675 54.315 3.21467 54.2808 2.63258C54.1897 1.23556 56.0022 -0.708612 57.3929 0.280939C59.2853 1.63138 56.9939 3.62213 55.6146 4.15765C55.5006 4.2275 55.3866 4.28571 55.2726 4.34392C55.5462 5.08899 55.9908 5.83406 56.5038 6.49765C56.6748 6.63735 56.8229 6.81197 56.9483 6.99824C56.9711 7.03317 56.9826 7.05645 56.994 7.07973C57.4272 7.56869 57.8945 7.99943 58.3619 8.36033C60.049 9.66421 62.1694 9.92033 64.1643 9.34988C62.2834 9.23346 60.3226 8.62809 59.2397 6.97496C58.0085 5.08899 58.8977 2.64422 60.6418 1.51497C61.987 0.653476 64.0047 0.560342 64.9167 2.08541C65.4639 3.00511 65.3955 4.26243 64.6545 5.04242C63.8679 5.86899 62.6824 5.58959 61.9756 4.84451C61.702 4.55347 62.329 4.49526 62.5114 4.68153C63.6285 5.85735 64.6887 4.29735 64.6089 3.20302C64.5633 2.49288 64.2669 1.79437 63.6172 1.4684C62.4316 0.87467 60.8812 1.8875 60.1289 2.77228C59.0687 4.02959 59.1143 6.04362 60.1289 7.31257C61.2232 8.65137 63.2409 8.9657 64.8597 8.93078C64.8939 8.93078 64.9395 8.93078 64.9737 8.95406C66.3873 7.74332 67.7894 6.55585 69.545 5.88063C71.6767 5.07735 73.9908 4.33228 76.2821 4.70481C78.1403 4.99586 79.6792 6.26481 80.5228 7.95287C81.127 9.15197 81.1384 10.5606 80.4772 11.7132C79.9528 12.6329 78.8813 13.4245 77.8097 13.4361C77.1713 13.4361 76.6583 13.2382 76.2593 12.9123C76.1909 12.9006 76.1339 12.8773 76.0997 12.8657C75.1992 12.3535 74.139 11.4221 74.0022 10.3161C73.8768 9.3266 74.4582 8.13914 75.4272 7.88302C75.5754 7.84809 76.134 8.08093 75.963 8.12749C75.051 8.37197 74.6862 9.41973 74.6406 10.3045C74.6064 11.0147 75.0966 11.6899 75.6666 12.2021C75.1878 11.3406 75.1536 10.1764 75.5754 9.19854C75.8946 8.45346 76.5329 7.94123 77.3423 7.91794C78.1061 7.9063 79.018 8.31376 79.2232 9.11704C79.3828 9.73406 78.8357 10.386 78.2999 10.5723C77.5589 10.84 77.0801 10.1415 76.9433 9.50122C76.8749 9.1869 77.5361 9.26839 77.6045 9.55943C77.6957 10.0018 77.8895 10.2929 78.2657 9.92033C78.4595 9.73406 78.5735 9.45466 78.5849 9.18689C78.6077 8.05764 76.9889 8.37197 76.5215 8.91913C75.4956 10.1066 75.7122 12.7958 77.5361 12.9821C78.5735 13.0869 79.5082 12.0741 79.9756 11.2591C80.6368 10.1066 80.2492 8.66302 79.645 7.59197C78.1403 4.91436 75.0966 4.83287 72.486 5.50809C70.1605 6.10183 68.1656 7.05645 66.3189 8.60481C64.7115 9.95525 63.2181 11.3523 61.2916 12.1905C58.0655 13.5875 52.9585 13.7738 51.2029 10.0251C50.4164 8.34869 51.2029 6.53257 52.9015 5.97377V5.96212ZM53.1067 4.77466C53.1751 4.77466 53.2434 4.77466 53.3118 4.77466C53.46 4.27407 52.2289 4.77466 53.1067 4.77466ZM52.0351 10.3394C53.2776 12.6329 56.1959 12.7958 58.4417 12.4466C60.5392 12.1323 62.3176 11.1194 63.9477 9.81555C62.0098 10.1881 60.0377 9.81555 58.3277 8.75615C57.9743 8.53496 57.621 8.26719 57.279 7.97615C57.3816 9.01227 56.7203 10.0484 55.74 10.5141C54.4404 11.1194 53.3233 10.3976 53.3689 8.93078C53.3803 8.59317 54.03 8.69794 54.03 8.98898C54.0072 9.67585 54.1555 10.4442 54.999 10.223C55.6602 10.0484 56.2188 9.47794 56.4924 8.87257C57.3246 7.05645 55.284 6.13675 53.8477 6.28809C51.7615 6.50929 51.0775 8.58152 52.0237 10.3394H52.0351Z" fill="#F5BC00"/>
<path d="M50.3589 10.0144C48.5919 13.7514 43.4849 13.5651 40.2702 12.1797C38.3322 11.3415 36.8389 9.94451 35.2429 8.59407C33.3962 7.04571 31.4012 6.09108 29.0757 5.49735C26.4652 4.82213 23.4215 4.90362 21.9168 7.58123C21.3126 8.65228 20.925 10.1075 21.5862 11.2484C22.065 12.075 22.9883 13.0761 24.0257 12.9714C25.861 12.7851 26.0662 10.0959 25.0402 8.90839C24.5729 8.36123 22.9655 8.0469 22.9769 9.17616C22.9769 9.44392 23.0909 9.72332 23.2847 9.90959C23.6723 10.2821 23.8547 9.99108 23.9459 9.54869C24.0029 9.26929 24.6755 9.17615 24.6071 9.49048C24.4703 10.1308 23.9915 10.8176 23.2505 10.5615C22.7147 10.3753 22.1675 9.72332 22.3271 9.1063C22.5323 8.30302 23.4443 7.88392 24.2081 7.9072C25.0175 7.93048 25.6558 8.44272 25.975 9.1878C26.3968 10.1773 26.3626 11.3415 25.8838 12.1914C26.4538 11.6791 26.944 11.0039 26.9098 10.2938C26.8756 9.42063 26.5108 8.37287 25.5874 8.11675C25.4164 8.07018 25.975 7.82571 26.1232 7.87228C27.0922 8.14004 27.6736 9.31586 27.5482 10.3054C27.4114 11.4114 26.3512 12.3427 25.4506 12.855C25.4278 12.8666 25.3595 12.8899 25.2911 12.9015C24.8921 13.2275 24.379 13.4254 23.7407 13.4254C22.6691 13.4254 21.5976 12.6221 21.0732 11.7024C20.412 10.5382 20.4234 9.14123 21.0275 7.94213C21.8711 6.25407 23.4101 4.98512 25.2683 4.69407C27.5596 4.33318 29.8737 5.06661 32.0054 5.86989C33.7724 6.53347 35.1631 7.73257 36.5767 8.94332C36.6223 8.94332 36.6565 8.92004 36.6907 8.92004C38.2981 8.95496 40.3158 8.64063 41.4215 7.30183C42.4475 6.04452 42.4931 4.03049 41.4215 2.76154C40.6806 1.87676 39.1188 0.863928 37.9332 1.45766C37.2835 1.78363 36.9871 2.48213 36.9415 3.19228C36.8617 4.28661 37.9219 5.84661 39.039 4.67079C39.2214 4.48452 39.8484 4.53109 39.5748 4.83377C38.868 5.57885 37.6825 5.85825 36.8959 5.03168C36.1549 4.26333 36.0865 3.00601 36.6337 2.07467C37.5456 0.5496 39.5748 0.642734 40.9085 1.50423C42.6527 2.62184 43.5419 5.07825 42.3107 6.96422C41.2278 8.61735 39.267 9.22272 37.3861 9.33914C39.3696 9.90959 41.5013 9.65347 43.1885 8.34959C43.6558 7.98869 44.1232 7.55795 44.5564 7.06899C44.5678 7.04571 44.5907 7.01078 44.6021 6.9875C44.7275 6.80123 44.8756 6.63825 45.0352 6.4869C45.5596 5.81168 45.9928 5.07825 46.2664 4.33318C46.1524 4.27497 46.0384 4.21676 45.9244 4.14691C44.545 3.59974 42.2537 1.609 44.1461 0.270197C45.5368 -0.719354 47.3379 1.22482 47.2581 2.62184C47.2239 3.20392 47.0758 3.79765 46.8478 4.3681C47.167 4.51944 47.509 4.63586 47.8509 4.69407C47.8737 4.62422 47.9193 4.55437 47.9991 4.47288C48.1701 4.28661 48.7629 3.99556 48.9567 4.32153C49.2189 4.77556 48.6261 4.8687 48.2841 4.8687C48.3639 5.0084 48.4665 5.10153 48.6261 5.15974C48.9111 5.25288 49.1961 5.2878 49.4811 5.33437C49.5609 5.34601 49.2873 5.47407 49.2075 5.46243C48.9681 5.41586 47.9421 5.24123 47.8509 4.83377C47.4862 4.78721 47.1214 4.69407 46.768 4.55437C46.5628 5.03168 46.312 5.49735 46.0156 5.93974C46.8706 5.66034 47.8623 5.68362 48.6261 5.93974C50.3247 6.4869 51.1112 8.30302 50.3246 9.99108L50.3589 10.0144ZM48.2613 4.76392C48.3297 4.76392 48.3981 4.76392 48.4665 4.76392C49.3443 4.76392 48.1131 4.25168 48.2613 4.76392ZM47.7256 6.28899C46.2892 6.13765 44.2601 7.05735 45.0808 8.87347C45.3658 9.49048 45.9244 10.0609 46.5742 10.2239C47.4064 10.4451 47.5659 9.67675 47.5431 8.98989C47.5431 8.69884 48.1929 8.59407 48.2043 8.93168C48.2499 10.3985 47.1328 11.1203 45.8446 10.515C44.8642 10.0493 44.2031 9.01317 44.3057 7.97705C43.9637 8.2681 43.6102 8.53586 43.2569 8.75705C41.5355 9.81645 39.5748 10.189 37.6368 9.81645C39.267 11.1203 41.0454 12.1332 43.1429 12.4475C45.3886 12.7851 48.3069 12.6338 49.5495 10.3403C50.4957 8.58242 49.8117 6.49855 47.7256 6.28899Z" fill="#F5BC00"/>
<path d="M50.7917 13.903C50.7917 13.903 51.2362 12.9134 50.9284 12.7388C50.6093 12.5642 50.1647 12.2848 50.1305 12.3896C50.0963 12.4943 50.0621 12.634 50.0621 12.634L49.2869 12.4012L49.1387 12.9251L48.6029 13.0182L48.5003 13.3908L48.2381 13.4257L48.1241 13.8215L47.9075 14.5549L48.0899 14.6131L47.805 14.9275L48.0785 15.2418L47.8277 15.9985L48.2153 16.1149C48.2153 16.1149 47.9759 16.7319 48.0899 17.1394C48.1925 17.5469 48.4775 17.6866 48.2723 18.0242C48.0671 18.3618 48.5003 17.7448 48.8651 17.6633C49.2299 17.5702 49.6517 17.0696 49.6517 17.0696L49.7315 17.5818L50.0506 17.7099L50.3015 18.1057L50.8715 18.3851L51.2818 19.2815L51.8062 18.3269L52.0342 18.3967L52.2052 17.7914L52.342 17.8961L52.5016 17.3373L52.7752 17.477L52.969 16.7902L53.71 17.1511L53.6416 15.5328L53.6871 15.172L52.8208 14.683L53.6073 14.0078L53.0374 13.6585L52.8892 13.2045L52.513 12.8669L52.171 12.4594L51.6352 12.5991L51.202 12.4711L50.7802 13.9379L50.7917 13.903Z" fill="#F5BC00"/>
<path d="M9.18375 9.11808C9.18375 9.11808 9.6511 10.0844 9.99308 9.95629C10.3237 9.81659 10.8253 9.63032 10.7569 9.54883C10.6999 9.45569 10.6201 9.33928 10.6201 9.33928L11.2812 8.87361L10.9735 8.41958L11.2357 7.93062L11.0191 7.61629L11.1559 7.38346L10.9279 7.04585L10.4947 6.41719L10.3351 6.53361L10.2781 6.10286L9.86771 6.12615L9.44592 5.45092L9.11536 5.68376C9.11536 5.68376 8.78478 5.11331 8.40859 4.93869C8.0324 4.7757 7.74739 4.90376 7.6106 4.53122C7.4738 4.15869 7.67898 4.88048 7.51938 5.22973C7.35979 5.57898 7.47381 6.23092 7.47381 6.23092L7.0292 5.9748L6.7328 6.14943L6.27679 6.10286L5.70681 6.37062L4.76069 6.13779L5.15965 7.16226L4.96587 7.30197L5.31926 7.82585L5.15965 7.87241L5.47887 8.34973L5.20529 8.47778L5.60425 9.05987L4.86324 9.42077L6.14 10.387L6.37942 10.6548L7.30279 10.2706L7.32561 11.3184L7.95257 11.0739L8.39718 11.2485L8.89876 11.167L9.4231 11.1438L9.65111 10.6315L10.0159 10.3754L9.16093 9.11808H9.18375Z" fill="#F5BC00"/>
<path d="M14.9746 14.3921C13.7549 12.7622 12.3641 10.3291 12.5807 8.19865C11.7372 7.84939 11.0532 6.89477 10.4718 6.23119C9.83346 5.49775 9.10385 4.70611 8.65926 3.82134C8.56807 3.63507 8.69348 3.09955 8.96708 3.26253C9.58266 3.61179 10.2438 3.85626 10.8822 4.14731C10.905 3.98432 10.9734 3.82134 11.0874 3.67C11.8968 2.56403 13.6979 4.75268 14.1197 5.49775C15.2938 4.60134 16.9696 4.85746 18.3148 4.45C19.4092 4.12403 19.8879 3.25089 20.2869 2.23806C20.5149 1.65597 20.8455 0.724627 21.4269 0.410299C22.3844 -0.0902969 21.8144 2.6106 21.689 2.97149C21.2559 4.17059 20.1843 4.98552 19.1241 5.56761C17.8246 6.27775 16.3996 6.78999 15.2596 7.7679C13.5041 9.28133 14.5187 12.0521 15.2369 13.8333C15.2483 13.8682 15.2483 13.9148 15.2369 13.973C15.2141 14.2058 15.0545 14.5318 14.9633 14.4037L14.9746 14.3921ZM10.734 5.61417C11.2584 6.23119 11.9309 7.16253 12.7061 7.50014C12.7517 7.33715 12.8088 7.16253 12.8886 6.99954C12.3414 6.46402 11.361 5.69566 11.0076 4.89238C10.9734 4.89238 10.9506 4.89238 10.9164 4.89238C10.506 4.70611 10.0956 4.53149 9.68526 4.35686C10.0158 4.79925 10.392 5.21835 10.7454 5.61417H10.734ZM12.9455 4.93895C12.558 4.54313 12.045 4.05417 11.4636 4.00761C10.791 3.9494 11.874 5.12522 12.0222 5.2882C12.387 5.69566 12.8087 6.05656 13.1963 6.45238C13.3445 6.23119 13.5269 6.02163 13.7321 5.82372C13.5041 5.49775 13.2191 5.20671 12.957 4.93895H12.9455ZM15.271 7.13925C17.0494 5.41626 20.0703 5.27656 21.3471 2.95985C21.5181 2.64552 21.5979 2.28462 21.6435 1.92373C21.7119 1.58612 21.6434 1.28343 21.461 0.992388C21.1646 1.00403 20.8113 1.79567 20.7087 2.01686C20.4123 2.65716 20.2413 3.36731 19.8195 3.93776C18.9987 5.05537 17.7562 5.25328 16.4794 5.40462C14.7239 5.60253 13.1964 6.19626 12.9 8.24521C12.6834 9.73536 13.4585 11.2372 14.3249 12.5294C13.8005 10.6318 13.7435 8.61775 15.271 7.13925Z" fill="#F5BC00"/>
<path d="M13.7897 15.3468C13.7897 15.3468 13.6871 15.3468 13.6529 15.3468C11.886 14.6716 9.13867 13.7053 7.72512 15.5563C6.80175 16.7554 6.3458 18.2223 5.69602 19.5727C5.16023 20.6787 4.39642 21.7847 3.23365 22.262C2.88027 22.4133 0.258332 23.0653 0.725718 22.0757C1.01071 21.4703 1.92273 21.0978 2.48131 20.8533C3.47308 20.4109 4.30522 19.8871 4.59021 18.7695C4.9436 17.3841 4.63585 15.6844 5.47942 14.4504C4.73844 14.0429 2.53828 12.2617 3.59845 11.4119C3.74665 11.2838 3.90628 11.2139 4.06588 11.179C3.76948 10.5271 3.49583 9.87514 3.14244 9.25813C2.98284 8.97872 3.49587 8.83902 3.68967 8.92052C4.56744 9.33962 5.354 10.0614 6.09498 10.6901C6.75616 11.2605 7.71372 11.9357 8.0785 12.7739C10.1646 12.4945 12.5814 13.8333 14.2229 15.0324C14.3483 15.1256 14.0406 15.3002 13.8126 15.3351L13.7897 15.3468ZM4.21401 9.95663C4.4078 10.3641 4.5902 10.7832 4.78399 11.1907C4.79539 11.2256 4.79539 11.2489 4.78399 11.2838C5.58196 11.6214 6.36859 12.5993 6.90438 13.1348C7.06397 13.0533 7.22355 12.9835 7.38314 12.9369C7.01835 12.1686 6.08359 11.505 5.46801 10.9928C5.05762 10.6551 4.64725 10.2826 4.20267 9.95663H4.21401ZM5.78716 14.0313C5.96956 13.8101 6.17477 13.6238 6.37997 13.4724C5.98098 13.0999 5.61623 12.6808 5.20584 12.3199C5.03485 12.1686 3.84922 11.1092 3.92902 11.796C3.99741 12.3898 4.48763 12.8904 4.88662 13.2745C5.16021 13.5423 5.45663 13.8217 5.77582 14.0429L5.78716 14.0313ZM12.3648 14.4387C11.0766 13.5889 9.58324 12.8554 8.13549 13.1232C6.15195 13.4957 5.61622 15.0674 5.47942 16.8602C5.37682 18.1757 5.21718 19.4447 4.14561 20.3178C3.59843 20.7718 2.90304 20.9581 2.28746 21.2841C2.07087 21.4005 1.31851 21.773 1.30711 22.0757C1.5921 22.262 1.89989 22.3202 2.23048 22.2387C2.57247 22.1805 2.92586 22.0874 3.23365 21.9011C5.46799 20.5157 5.50216 17.4423 7.13231 15.568C8.52307 13.9614 10.5067 13.9614 12.3762 14.4271L12.3648 14.4387Z" fill="#F5BC00"/>
</svg>
