<svg width="81" height="83" viewBox="0 0 81 83" fill="none" xmlns="http://www.w3.org/2000/svg">
<path d="M9.78428 51.4128C13.455 49.6083 13.2726 44.3928 11.9046 41.1098C11.0838 39.1307 9.71589 37.6056 8.39353 35.9641C6.87738 34.0781 5.9426 32.0408 5.36122 29.6659C4.70004 26.9999 4.77984 23.8916 7.40176 22.3549C8.45053 21.7379 9.87548 21.3537 10.9926 22.0173C11.802 22.5062 12.7824 23.4492 12.6798 24.5086C12.4974 26.3829 9.86408 26.5925 8.70132 25.5564C8.16553 25.0791 7.85774 23.4259 8.96351 23.4492C9.2371 23.4492 9.49929 23.5656 9.69309 23.7752C10.0579 24.171 9.77288 24.3573 9.3397 24.4504C9.05471 24.5086 8.97491 25.1955 9.2827 25.1256C9.90968 24.9859 10.5823 24.497 10.3315 23.7403C10.1491 23.1931 9.51069 22.6343 8.90651 22.7973C8.11994 23.0068 7.70955 23.9382 7.73235 24.7182C7.75515 25.5447 8.25673 26.1967 8.98631 26.5226C9.95528 26.9534 11.0838 26.9185 11.9274 26.4295C11.4258 27.0116 10.7647 27.5122 10.0693 27.4773C9.2143 27.4423 8.18833 27.0698 7.93754 26.1268C7.89194 25.9522 7.65255 26.5226 7.69815 26.674C7.96034 27.6635 9.11171 28.2573 10.0807 28.1292C11.1636 27.9895 12.0756 26.9185 12.5772 25.9871C12.5886 25.9638 12.6114 25.894 12.6228 25.8241C12.942 25.4167 13.1358 24.8928 13.1358 24.2408C13.1358 23.1465 12.3492 22.0522 11.46 21.5167C10.3201 20.8298 8.95211 20.8531 7.77795 21.4701C6.125 22.3316 4.88244 23.9032 4.59745 25.8008C4.24406 28.1408 4.96223 30.5158 5.74881 32.6811C6.39859 34.4856 7.57275 35.9059 8.75832 37.3495C8.74692 37.396 8.73552 37.431 8.73552 37.4659C8.76972 39.1074 8.46193 41.168 7.15097 42.2972C5.9198 43.345 3.94767 43.3799 2.70511 42.2972C1.83873 41.5405 0.846964 39.9572 1.42835 38.7349C1.74754 38.0713 2.43151 37.7686 3.12689 37.722C4.19846 37.6405 5.72601 38.7232 4.57465 39.8641C4.39225 40.0504 4.44925 40.6907 4.73424 40.4113C5.46382 39.6895 5.73741 38.4787 4.92804 37.6755C4.17566 36.9187 2.9445 36.8489 2.03253 37.4077C0.539173 38.339 0.63037 40.4113 1.47394 41.7734C2.57971 43.5546 4.97363 44.4626 6.82038 43.2053C8.43913 42.0993 9.03191 40.0969 9.1459 38.1761C9.70449 40.2017 9.4537 42.3787 8.17694 44.1017C7.82355 44.579 7.40176 45.0563 6.92297 45.4987C6.90017 45.5104 6.86598 45.5337 6.84318 45.5453C6.66078 45.6734 6.50119 45.8247 6.35299 45.9877C5.69181 46.5232 4.97363 46.9656 4.24406 47.245C4.18706 47.1286 4.13006 47.0122 4.06166 46.8957C3.52588 45.4871 1.57654 43.1471 0.265581 45.0796C-0.703389 46.4999 1.18895 48.3393 2.56831 48.2578C3.13829 48.2229 3.71967 48.0716 4.27826 47.8387C4.42645 48.1647 4.54045 48.514 4.59745 48.8632C4.52905 48.8865 4.46065 48.9331 4.38085 49.0145C4.19846 49.2008 3.91347 49.7945 4.23266 49.9925C4.67724 50.2602 4.76844 49.6548 4.76844 49.3056C4.89384 49.3871 4.99643 49.4919 5.05343 49.6548C5.14463 49.9459 5.17883 50.2369 5.22443 50.528C5.23583 50.6095 5.34982 50.3301 5.33842 50.2486C5.30422 50.0041 5.13323 48.9563 4.73424 48.8632C4.68864 48.4907 4.58605 48.1181 4.46065 47.7572C4.92804 47.5477 5.38402 47.2916 5.81721 46.9889C5.54362 47.862 5.56642 48.8748 5.81721 49.6548C6.35299 51.3895 8.13134 52.1927 9.78428 51.3895V51.4128ZM4.65444 49.2707C4.65444 49.3405 4.65444 49.4104 4.65444 49.4802C4.65444 50.3766 4.15286 49.1193 4.65444 49.2707ZM6.1364 48.7119C5.9882 47.245 6.88877 45.1728 8.66712 46.011C9.2713 46.302 9.82988 46.8725 9.98948 47.536C10.2061 48.3859 9.4537 48.5489 8.78112 48.5256C8.49613 48.5256 8.39353 49.1892 8.72412 49.2008C10.1605 49.2474 10.8673 48.1065 10.2745 46.7793C9.81848 45.7781 8.80392 45.1029 7.78935 45.2077C8.08574 44.8584 8.33653 44.4975 8.55312 44.1366C9.60189 42.3787 9.95528 40.3763 9.59049 38.3972C10.8673 40.062 11.859 41.8781 12.1668 44.0202C12.4974 46.3137 12.3492 49.2939 10.1035 50.5629C8.38213 51.5292 6.34159 50.8307 6.1364 48.7002V48.7119Z" fill="#FFFEFA"/>
<path d="M5.8289 54.0088C5.58951 54.7888 5.55531 55.8017 5.8289 56.6748C5.39571 56.3721 4.93973 56.116 4.47234 55.9064C4.60914 55.5456 4.70033 55.1847 4.74593 54.8005C5.14492 54.7073 5.31592 53.6479 5.35011 53.4151C5.36151 53.3453 5.24752 53.0659 5.23612 53.1357C5.19052 53.4268 5.15632 53.7178 5.06512 54.0088C5.01952 54.1602 4.91693 54.2766 4.78013 54.3581C4.78013 53.9972 4.68893 53.4035 4.24435 53.6712C3.91376 53.8691 4.21015 54.4745 4.39254 54.6491C4.47234 54.7306 4.54074 54.7772 4.60914 54.8005C4.55214 55.1497 4.43814 55.499 4.28995 55.825C3.71996 55.5921 3.14998 55.4524 2.58 55.4175C1.21204 55.3244 -0.691697 57.1754 0.277273 58.5957C1.59963 60.5282 3.53757 58.1882 4.07335 56.7796C4.14175 56.6632 4.19875 56.5467 4.25575 56.4303C4.98533 56.7097 5.7149 57.1638 6.36468 57.6876C6.50148 57.8623 6.66107 58.0136 6.85487 58.1417C6.87767 58.1533 6.91187 58.1766 6.93467 58.1882C7.41345 58.6306 7.83524 59.1079 8.18863 59.5852C9.46539 61.3082 9.71618 63.4736 9.1576 65.5109C9.0436 63.59 8.45082 61.5876 6.83207 60.4817C4.98533 59.2244 2.5914 60.1324 1.48563 61.9136C0.642061 63.2757 0.550864 65.3479 2.04422 66.2793C2.94479 66.8381 4.17595 66.7682 4.93973 66.0115C5.7491 65.2082 5.47551 63.9975 4.74593 63.2757C4.46094 62.9963 4.40394 63.6366 4.58634 63.8229C5.7377 64.9637 4.21015 66.0464 3.13858 65.9649C2.44321 65.9184 1.75923 65.604 1.44004 64.9521C0.858654 63.7414 1.85042 62.1581 2.7168 61.4014C3.94796 60.3187 5.9201 60.3652 7.16266 61.4014C8.48502 62.519 8.78141 64.5796 8.74721 66.2327C8.74721 66.2676 8.74721 66.3142 8.77001 66.3491C7.58444 67.7927 6.42168 69.2246 5.7605 71.0175C4.97393 73.1945 4.24435 75.5578 4.60914 77.8978C4.89413 79.7954 6.13669 81.367 7.78964 82.2285C8.9638 82.8455 10.3432 82.8572 11.4717 82.1819C12.3723 81.6464 13.1475 80.5521 13.1475 79.4578C13.1475 78.8058 12.9537 78.2819 12.6345 77.8745C12.6231 77.8046 12.6003 77.7464 12.5889 77.7115C12.0873 76.7801 11.1753 75.7091 10.0924 75.5694C9.1234 75.4413 7.97203 76.0351 7.70984 77.0246C7.67564 77.176 7.90363 77.7464 7.94923 77.5718C8.18863 76.6404 9.21459 76.2679 10.081 76.2213C10.7763 76.1864 11.4375 76.687 11.9391 77.2691C11.0955 76.7801 9.95557 76.7452 8.998 77.176C8.26842 77.5019 7.76684 78.1539 7.74404 78.9804C7.72124 79.7604 8.13163 80.6918 8.9182 80.9013C9.52238 81.0643 10.1608 80.5055 10.3432 79.9583C10.6054 79.2016 9.92137 78.7127 9.29439 78.573C8.9866 78.5031 9.0664 79.1783 9.35139 79.2482C9.78458 79.3413 10.0696 79.5392 9.70478 79.9234C9.52238 80.1213 9.24879 80.2377 8.9752 80.2494C7.86944 80.2727 8.17723 78.6195 8.71301 78.1422C9.87577 77.0945 12.5091 77.3157 12.6915 79.1784C12.7941 80.2494 11.8023 81.1924 11.0043 81.6697C9.87577 82.3449 8.46222 81.9491 7.41345 81.3321C4.79153 79.7954 4.71173 76.687 5.37291 74.021C5.9543 71.6461 6.88907 69.6088 8.40522 67.7229C9.72758 66.0814 11.0955 64.5563 11.9163 62.5888C13.2843 59.2942 13.4667 54.0787 9.80738 52.2859C8.16583 51.4826 6.38748 52.2859 5.8403 54.0205L5.8289 54.0088ZM4.65474 54.2184C4.65474 54.2882 4.65474 54.3581 4.65474 54.4279C4.16455 54.5909 4.65474 53.322 4.65474 54.2184ZM10.1038 53.1124C12.3495 54.3814 12.5091 57.3617 12.1671 59.6551C11.8593 61.7972 10.8675 63.6133 9.59078 65.2781C9.95557 63.299 9.59078 61.2966 8.55341 59.5387C8.33682 59.1778 8.08603 58.8169 7.78964 58.4676C8.80421 58.5724 9.81878 57.8972 10.2748 56.896C10.8789 55.5688 10.1608 54.4279 8.72441 54.4745C8.39382 54.4862 8.49642 55.1497 8.78141 55.1497C9.45399 55.1264 10.2064 55.2778 9.98977 56.1393C9.81878 56.8145 9.26019 57.385 8.66741 57.6644C6.88907 58.5142 5.98849 56.4303 6.13669 54.9751C6.35328 52.8447 8.38242 52.1462 10.1038 53.1124Z" fill="#FFFEFA"/>
<path d="M13.5921 51.8318C13.5921 51.8318 12.6231 51.3777 12.4522 51.6921C12.2812 52.0064 11.9962 52.4721 12.1102 52.507C12.2128 52.5419 12.3382 52.5769 12.3382 52.5769L12.1102 53.3685L12.6231 53.5198L12.7143 54.067L13.0791 54.1718L13.1133 54.4395L13.5009 54.556L14.2191 54.7771L14.2761 54.5909L14.5839 54.8819L14.8917 54.6025L15.6327 54.8586L15.7466 54.4628C15.7466 54.4628 16.3508 54.7073 16.7498 54.5909C17.1488 54.4861 17.2856 54.1951 17.6162 54.4046C17.9468 54.6142 17.3426 54.1718 17.2628 53.7992C17.1716 53.4267 16.6814 52.996 16.6814 52.996L17.183 52.9145L17.3084 52.5885L17.696 52.3324L17.9696 51.7503L18.8474 51.3312L17.9126 50.784L17.981 50.5512L17.3882 50.3766L17.4908 50.2369L16.9436 50.0739L17.0804 49.7945L16.4078 49.5966L16.7612 48.8398L15.1653 48.9097L14.8119 48.8631L14.3331 49.7479L13.6719 48.9446L13.3299 49.5267L12.8739 49.678L12.5433 50.0622L12.1444 50.4115L12.2812 50.9586L12.1558 51.401L13.5921 51.8318Z" fill="#FFFEFA"/>
<path d="M51.1776 10.0033C52.9446 13.7403 58.0516 13.5541 61.2663 12.1571C63.2042 11.3189 64.6976 9.92184 66.2936 8.57139C68.1403 7.02304 70.1352 6.06841 72.4608 5.47468C75.0713 4.79946 78.115 4.89259 79.6197 7.55856C80.2239 8.6296 80.6001 10.0848 79.9503 11.2257C79.4715 12.0523 78.5482 13.0651 77.5108 12.9487C75.6755 12.7624 75.4703 10.0732 76.4848 8.88572C76.9522 8.3502 78.571 8.02423 78.5482 9.15348C78.5482 9.43289 78.4342 9.70065 78.2404 9.89856C77.8528 10.2711 77.6704 9.98005 77.5792 9.53766C77.5222 9.24662 76.8496 9.16512 76.918 9.47945C77.0548 10.1198 77.5336 10.8066 78.2746 10.5505C78.8104 10.3642 79.3575 9.71229 79.1979 9.09527C78.9928 8.29199 78.0808 7.87289 77.317 7.89617C76.5076 7.91946 75.8692 8.43169 75.5501 9.17677C75.1283 10.1547 75.1625 11.3189 75.6413 12.1803C75.0713 11.6681 74.5811 10.9929 74.6153 10.2827C74.6495 9.4096 75.0143 8.36184 75.9376 8.11736C76.1086 8.0708 75.5501 7.82632 75.4019 7.87289C74.4329 8.14065 73.8515 9.31647 73.9769 10.306C74.1137 11.412 75.1739 12.3433 76.0744 12.8556C76.0972 12.8672 76.1656 12.8905 76.234 12.9021C76.633 13.2281 77.146 13.426 77.7844 13.426C78.856 13.426 79.9275 12.6227 80.4519 11.7147C81.1245 10.5505 81.1017 9.15348 80.5089 7.95438C79.6653 6.26632 78.1264 4.99737 76.2682 4.70633C73.9769 4.34543 71.6628 5.07886 69.531 5.88214C67.7641 6.54573 66.3734 7.74483 64.9598 8.95557C64.9142 8.94393 64.88 8.93229 64.8458 8.93229C63.2384 8.96721 61.2207 8.65289 60.1149 7.31408C59.089 6.05677 59.0548 4.04274 60.1149 2.77379C60.8559 1.88902 62.4063 0.876183 63.6032 1.46991C64.253 1.79588 64.5494 2.49439 64.595 3.20454C64.6748 4.29886 63.6146 5.85886 62.4975 4.68304C62.3151 4.49677 61.6881 4.55498 61.9617 4.84603C62.6685 5.5911 63.854 5.8705 64.6406 5.04394C65.3816 4.27558 65.45 3.01827 64.9028 2.08693C63.9908 0.561856 61.9617 0.654989 60.6279 1.51648C58.8838 2.63409 57.9946 5.0905 59.2258 6.97647C60.3087 8.6296 62.2695 9.23498 64.1504 9.35139C62.1669 9.92184 60.0351 9.66572 58.348 8.36184C57.8806 8.00095 57.4132 7.5702 56.98 7.08125C56.9686 7.04632 56.9458 7.02304 56.9344 6.99975C56.809 6.81349 56.6608 6.6505 56.4899 6.49916C55.9655 5.82394 55.5323 5.0905 55.2587 4.34543C55.3727 4.28722 55.4867 4.22901 55.6007 4.15916C56.98 3.612 59.2714 1.62126 57.379 0.282453C55.9883 -0.707098 54.1871 1.22544 54.2669 2.63409C54.3011 3.21618 54.4493 3.80991 54.6659 4.38036C54.3467 4.5317 54.0047 4.64812 53.6627 4.70633C53.6399 4.63648 53.5943 4.56662 53.5145 4.48513C53.3322 4.29886 52.7508 4.00782 52.557 4.33379C52.2948 4.78782 52.8876 4.88095 53.2296 4.88095C53.1498 5.00901 53.0472 5.11379 52.8876 5.172C52.6026 5.26513 52.3176 5.30006 52.0326 5.34662C51.9528 5.35826 52.2264 5.47468 52.3062 5.46304C52.5456 5.41647 53.5715 5.25349 53.6627 4.84603C54.0275 4.79946 54.3923 4.69468 54.7457 4.56662C54.9509 5.04394 55.2017 5.50961 55.4981 5.952C54.6431 5.67259 53.6513 5.69588 52.8876 5.952C51.189 6.49916 50.4024 8.31528 51.189 10.0033H51.1776ZM53.2752 4.75289C53.2068 4.75289 53.1384 4.75289 53.07 4.75289C52.1922 4.75289 53.4233 4.24066 53.2752 4.75289ZM53.8109 6.26632C55.2473 6.11498 57.2764 7.03468 56.4557 8.8508C56.1707 9.46781 55.6121 10.0383 54.9623 10.2012C54.1301 10.4224 53.9705 9.65408 53.9933 8.96722C53.9933 8.67617 53.3436 8.57139 53.3322 8.90901C53.2866 10.3759 54.3923 11.0977 55.7033 10.4923C56.6836 10.0266 57.3448 8.9905 57.2422 7.95438C57.5842 8.24543 57.9376 8.51319 58.291 8.73438C60.0123 9.80542 61.9731 10.1663 63.911 9.79378C62.2809 11.0977 60.5025 12.1105 58.405 12.4248C56.1593 12.7624 53.241 12.6111 51.9984 10.3177C51.0522 8.55975 51.7362 6.47587 53.8223 6.26632H53.8109Z" fill="#FFFEFA"/>
<path d="M48.635 5.95195C47.8712 5.70747 46.8794 5.68419 46.0245 5.95195C46.3208 5.50956 46.5716 5.04389 46.7768 4.56658C47.1302 4.70628 47.4836 4.79941 47.8598 4.84598C47.951 5.25344 48.9884 5.42807 49.2164 5.46299C49.2848 5.47463 49.5583 5.35822 49.49 5.34657C49.205 5.30001 48.92 5.26508 48.635 5.17195C48.4868 5.12538 48.3728 5.02061 48.293 4.8809C48.6464 4.8809 49.2278 4.77613 48.9656 4.33374C48.7718 3.99613 48.179 4.29882 48.008 4.48508C47.9282 4.56658 47.8826 4.63643 47.8598 4.70628C47.5178 4.64807 47.1758 4.53165 46.8566 4.38031C47.0846 3.79822 47.2214 3.21613 47.267 2.63404C47.3582 1.23703 45.5457 -0.707147 44.1549 0.282404C42.2626 1.62121 44.5539 3.61195 45.9333 4.15911C46.0473 4.22897 46.1613 4.28717 46.2753 4.34538C46.0017 5.09046 45.5571 5.83553 45.0441 6.49911C44.8731 6.63881 44.7249 6.8018 44.5995 6.99971C44.5767 7.02299 44.5653 7.05792 44.5539 7.0812C44.1207 7.57015 43.6533 8.0009 43.1859 8.36179C41.4988 9.65403 39.3785 9.92179 37.3835 9.35135C39.2645 9.23493 41.2252 8.62956 42.3082 6.97642C43.5393 5.09046 42.6502 2.64568 40.906 1.51643C39.5609 0.65494 37.5431 0.561807 36.6312 2.08688C36.084 3.00658 36.1524 4.26389 36.8933 5.04389C37.6799 5.87046 38.8655 5.59105 39.5723 4.84598C39.8459 4.55493 39.2189 4.49673 39.0365 4.68299C37.9193 5.85881 36.8705 4.29882 36.9389 3.20449C36.9845 2.49434 37.2923 1.79583 37.9307 1.46986C39.1163 0.876134 40.6666 1.88897 41.419 2.77374C42.4792 4.03105 42.4336 6.04508 41.419 7.31404C40.3246 8.66448 38.3069 8.96717 36.6882 8.93224C36.654 8.93224 36.6084 8.93224 36.5742 8.95553C35.1606 7.74478 33.7584 6.55732 32.0029 5.8821C29.8712 5.07881 27.557 4.33374 25.2657 4.70628C23.4076 4.99732 21.8686 6.26628 21.025 7.95433C20.4209 9.15344 20.4095 10.5621 21.0706 11.7146C21.595 12.6343 22.6666 13.426 23.7382 13.426C24.3765 13.426 24.8895 13.2281 25.2885 12.9021C25.3569 12.8904 25.4139 12.8672 25.4481 12.8555C26.3601 12.3433 27.4088 11.4119 27.5456 10.306C27.671 9.31642 27.0897 8.12896 26.1207 7.87284C25.9725 7.83791 25.4139 8.07075 25.5849 8.11732C26.4969 8.36179 26.8617 9.40956 26.9073 10.2827C26.9415 10.9928 26.4513 11.6681 25.8813 12.1803C26.3601 11.3188 26.3943 10.1546 25.9725 9.17672C25.6533 8.43165 25.0149 7.91941 24.2055 7.89612C23.4418 7.88448 22.5298 8.29194 22.3246 9.09523C22.165 9.71224 22.7122 10.3642 23.248 10.5504C23.9889 10.8182 24.4677 10.1197 24.6045 9.47941C24.6729 9.16508 24.0117 9.24657 23.9433 9.53761C23.8522 9.98 23.6584 10.271 23.2822 9.89851C23.0884 9.71224 22.9744 9.43284 22.9744 9.15344C22.9516 8.02418 24.5703 8.33851 25.0377 8.88567C26.0637 10.0731 25.8471 12.7624 24.0231 12.9487C22.9858 13.0534 22.051 12.0406 21.5836 11.2257C20.9224 10.0848 21.2986 8.62956 21.9142 7.55851C23.419 4.8809 26.4627 4.79941 29.0732 5.47464C31.3987 6.06837 33.3937 7.02299 35.2404 8.57135C36.8363 9.92179 38.3411 11.3188 40.2676 12.157C43.4937 13.554 48.6008 13.7403 50.3563 10.0033C51.1429 8.32687 50.3563 6.51075 48.6578 5.95195H48.635ZM48.4298 4.76449C48.3614 4.76449 48.293 4.76449 48.2246 4.76449C48.0764 4.26389 49.3076 4.76449 48.4298 4.76449ZM49.5013 10.3293C48.2588 12.6227 45.3405 12.7857 43.0947 12.4364C40.9972 12.1221 39.2189 11.1093 37.5887 9.80538C39.5267 10.1779 41.4874 9.80537 43.2087 8.74597C43.5621 8.52478 43.9155 8.26866 44.2575 7.96597C44.1549 9.00209 44.8161 10.0382 45.7965 10.5039C47.096 11.1093 48.2132 10.3875 48.1562 8.9206C48.1448 8.58299 47.495 8.68776 47.495 8.97881C47.5178 9.66567 47.3696 10.434 46.526 10.2128C45.8649 10.0382 45.3063 9.46776 45.0327 8.86239C44.2005 7.04627 46.2411 6.12657 47.6774 6.27792C49.7635 6.49911 50.4475 8.57135 49.5013 10.3293Z" fill="#FFFEFA"/>
<path d="M50.7553 13.8915C50.7553 13.8915 51.1998 12.9019 50.8921 12.7273C50.5843 12.541 50.1283 12.2733 50.0941 12.3781C50.0599 12.4828 50.0257 12.6109 50.0257 12.6109L49.2505 12.3781L49.1023 12.9019L48.5665 12.9951L48.4639 13.3676L48.2017 13.4025L48.0877 13.7984L47.8711 14.5318L48.0535 14.59L47.7686 14.9043L48.0421 15.2186L47.7914 15.9754L48.1789 16.0918C48.1789 16.0918 47.9395 16.7088 48.0535 17.1163C48.1561 17.5237 48.4411 17.6634 48.2359 18.001C48.0307 18.3386 48.4639 17.7216 48.8287 17.6401C49.1935 17.547 49.6153 17.0464 49.6153 17.0464L49.6951 17.5586L50.0143 17.6867L50.2651 18.0825L50.8237 18.3619L51.234 19.2583L51.7584 18.3037L51.9864 18.3736L52.1574 17.7682L52.2942 17.873L52.4538 17.3142L52.7274 17.4539L52.9212 16.767L53.6622 17.1279L53.5938 15.498L53.6394 15.1372L52.773 14.6482L53.5596 13.973L52.9896 13.6237L52.8414 13.1697L52.4652 12.8204L52.1232 12.413L51.5874 12.5527L51.1542 12.4246L50.7325 13.8915H50.7553Z" fill="#FFFEFA"/>
<path d="M9.14604 9.10636C9.14604 9.10636 9.61342 10.0726 9.95541 9.94457C10.286 9.80487 10.7876 9.6186 10.7192 9.53711C10.6622 9.44398 10.5824 9.3392 10.5824 9.3392L11.2436 8.87353L10.9358 8.4195L11.198 7.93055L10.9814 7.61622L11.1182 7.38338L10.8902 7.04577L10.457 6.41711L10.2974 6.52189L10.2404 6.09114L9.83001 6.11443L9.40823 5.4392L9.07764 5.67204C9.07764 5.67204 8.75845 5.10159 8.38226 4.92697C8.00607 4.76398 7.72108 4.89204 7.58429 4.5195C7.44749 4.14697 7.65268 4.86876 7.49309 5.21801C7.33349 5.56727 7.44749 6.2192 7.44749 6.2192L7.0029 5.96309L6.70651 6.13771L6.25053 6.09114L5.68055 6.35891L4.73438 6.12607L5.13336 7.15055L4.93957 7.29025L5.29296 7.81413L5.13336 7.8607L5.45255 8.33801L5.17896 8.46607L5.57795 9.04816L4.83697 9.40905L6.11373 10.3753L6.35312 10.6314L7.2765 10.2473L7.29929 11.295L7.92628 11.0505L8.37086 11.2252L8.87245 11.1437L9.39683 11.1204L9.62482 10.6082L9.98961 10.3404L9.13464 9.08308L9.14604 9.10636Z" fill="#FFFEFA"/>
<path d="M15.2223 13.9495C15.2223 13.9495 15.2223 13.8448 15.2223 13.8098C14.5041 12.0286 13.4782 9.25789 15.2451 7.74446C16.3851 6.76655 17.8214 6.25431 19.1096 5.54417C20.1697 4.96208 21.2413 4.14716 21.6745 2.94805C21.7999 2.58716 22.3699 -0.113734 21.4123 0.386862C20.8309 0.70119 20.5003 1.63253 20.2723 2.21462C19.8734 3.2391 19.3832 4.10059 18.3002 4.42656C16.955 4.83402 15.2793 4.56626 14.1051 5.47432C13.6833 4.72924 11.8708 2.54059 11.0728 3.64656C10.9588 3.7979 10.8904 3.96089 10.8676 4.12387C10.2293 3.84447 9.56808 3.58835 8.9525 3.2391C8.6789 3.08775 8.55351 3.62328 8.64471 3.80954C9.08929 4.69432 9.80747 5.47432 10.4572 6.20775C11.0386 6.87133 11.7226 7.81431 12.5662 8.17521C12.3496 10.3057 13.7403 12.7388 14.9601 14.3686C15.0513 14.4851 15.2223 14.1707 15.2337 13.9379L15.2223 13.9495ZM9.63647 4.33342C10.0469 4.51969 10.4572 4.68268 10.8676 4.86894C10.9018 4.88059 10.9246 4.88059 10.9588 4.86894C11.3122 5.67223 12.2926 6.44058 12.8398 6.97611C12.7714 7.13909 12.703 7.30207 12.6574 7.4767C11.8936 7.12745 11.221 6.19611 10.6852 5.57909C10.3433 5.17163 9.96706 4.75253 9.62507 4.32178L9.63647 4.33342ZM13.6833 5.82357C13.4782 6.02148 13.2958 6.23103 13.1476 6.45223C12.7714 6.05641 12.3496 5.69551 11.9848 5.28805C11.8366 5.12506 10.765 3.94924 11.4262 4.00745C12.0076 4.05402 12.5206 4.54298 12.9082 4.9388C13.1818 5.20656 13.4554 5.50924 13.6833 5.82357ZM14.2875 12.5176C13.4212 11.2254 12.646 9.72356 12.8626 8.23342C13.1704 6.19611 14.6865 5.60238 16.4421 5.39282C17.7188 5.25312 18.9614 5.04357 19.7822 3.92596C20.2039 3.35551 20.3749 2.63372 20.6713 2.00507C20.7739 1.78387 21.1159 0.992234 21.4237 0.980592C21.6175 1.27164 21.6745 1.57432 21.6061 1.91193C21.5605 2.27283 21.4807 2.63372 21.3097 2.94805C20.033 5.26477 17.012 5.40447 15.2337 7.12745C13.7061 8.59431 13.7631 10.62 14.2875 12.5176Z" fill="#FFFEFA"/>
<path d="M14.162 15.0436C12.5204 13.8445 10.1037 12.5057 8.01755 12.7851C7.65277 11.9353 6.6952 11.26 6.03402 10.6896C5.29304 10.0609 4.49506 9.33916 3.62869 8.92005C3.4463 8.82692 2.92191 8.97826 3.08151 9.25766C3.4349 9.87468 3.70849 10.5383 4.00488 11.1902C3.84528 11.2251 3.69709 11.295 3.53749 11.423C2.48873 12.2729 4.67746 14.0541 5.41844 14.4615C4.57486 15.6839 4.88265 17.3953 4.52926 18.7806C4.24427 19.9099 3.4121 20.4338 2.42033 20.8645C1.86175 21.109 0.949775 21.4815 0.664784 22.0869C0.197399 23.0764 2.83072 22.4129 3.17271 22.2732C4.33547 21.7959 5.09925 20.6782 5.63503 19.5723C6.29621 18.2218 6.75219 16.755 7.66417 15.5559C9.08912 13.7048 11.825 14.6711 13.592 15.3463C13.6262 15.358 13.6718 15.358 13.7288 15.3463C13.9568 15.323 14.2646 15.1368 14.1392 15.0436H14.162ZM5.44123 10.9806C6.05682 11.4929 6.99159 12.1565 7.35638 12.9248C7.19678 12.983 7.03719 13.0412 6.87759 13.1227C6.34181 12.5756 5.55523 11.6093 4.75726 11.26C4.75726 11.2368 4.75726 11.2018 4.75726 11.1669C4.56346 10.7595 4.38107 10.3403 4.18727 9.93289C4.63186 10.2589 5.05365 10.6314 5.45263 10.969L5.44123 10.9806ZM4.85985 13.2508C4.46087 12.8666 3.97068 12.3544 3.90228 11.7723C3.82249 11.0971 5.00805 12.1565 5.17904 12.2962C5.58943 12.6571 5.95422 13.0762 6.35321 13.4487C6.14801 13.6117 5.94282 13.798 5.76042 14.0191C5.44123 13.798 5.14484 13.5186 4.87125 13.2508H4.85985ZM7.08278 15.5675C5.45263 17.4418 5.41844 20.5153 3.18411 21.9006C2.87632 22.0869 2.52293 22.18 2.18094 22.2382C1.86175 22.3197 1.55396 22.2732 1.25757 22.0753C1.25757 21.7726 2.02134 21.3884 2.23794 21.2836C2.85352 20.9576 3.54889 20.7597 4.09608 20.3173C5.15624 19.4442 5.32724 18.1753 5.42983 16.8597C5.57803 15.0553 6.10241 13.4836 8.09735 13.1111C9.54511 12.8433 11.0499 13.5768 12.3266 14.4266C10.4571 13.9493 8.48494 13.9609 7.08278 15.5559V15.5675Z" fill="#FFFEFA"/>
</svg>
