<svg width="19" height="16" viewBox="0 0 19 16" fill="none" xmlns="http://www.w3.org/2000/svg">
<path d="M18.7564 6.81188C18.9188 6.99293 19 7.20807 19 7.45731C19 7.70655 18.9188 7.9214 18.7564 8.10184L15.6119 11.2928C15.4495 11.4738 15.2428 11.5644 14.9918 11.5644C14.7409 11.5644 14.5342 11.4738 14.3718 11.2928L13.1096 10.0255C12.9324 9.84441 12.8438 9.62957 12.8438 9.38093C12.8438 9.1323 12.9324 8.91715 13.1096 8.7355C13.2867 8.56954 13.4972 8.48656 13.7411 8.48656C13.985 8.48656 14.1952 8.56954 14.3718 8.7355L14.9918 9.36917L17.4942 6.81188C17.6713 6.64592 17.8816 6.56294 18.1248 6.56294C18.3681 6.56294 18.5787 6.64592 18.7564 6.81188ZM8.25991 15.7737L6.04545 13.7143C4.98252 12.7336 4.07105 11.8586 3.31105 11.0891C2.55105 10.3197 1.92362 9.59548 1.42876 8.91655C0.933908 8.23763 0.572214 7.58133 0.343683 6.94767C0.115152 6.314 0.000590521 5.65017 0 4.95615C0 3.53795 0.465035 2.35753 1.3951 1.41488C2.32517 0.47223 3.48407 0.000603489 4.87179 0C5.63947 0 6.37024 0.162339 7.0641 0.487016C7.75796 0.811693 8.35587 1.27547 8.85781 1.87836C9.35975 1.27487 9.95765 0.811089 10.6515 0.487016C11.3454 0.162942 12.0761 0.000603489 12.8438 0C14.0987 0 15.1507 0.388647 15.9999 1.16594C16.849 1.94323 17.3767 2.85209 17.5828 3.8925C17.2875 3.77181 16.9775 3.69637 16.6527 3.6662C16.3279 3.63602 15.9957 3.62093 15.6562 3.62093C14.4013 3.62093 13.2498 4.13782 12.2016 5.1716C11.1535 6.20538 10.6294 7.49895 10.6294 9.05233C10.6294 9.77652 10.7844 10.5122 11.0944 11.2593C11.4044 12.0064 11.8399 12.6135 12.4009 13.0806C12.1204 13.3371 11.7552 13.6654 11.3052 14.0655C10.8552 14.4656 10.4676 14.8163 10.1422 15.1174L9.43357 15.7737C9.27117 15.9246 9.07542 16 8.84629 16C8.61717 16 8.42171 15.9246 8.25991 15.7737Z" fill="#001F1A"/>
</svg>
