<svg width="20" height="20" viewBox="0 0 20 20" fill="none" xmlns="http://www.w3.org/2000/svg">
<path d="M9.97949 0C13.4485 0 16.4443 2.46712 16.4443 5.72168C16.444 7.74465 15.2855 9.4619 13.5762 10.4727C17.5435 11.7128 19.9638 14.9577 19.9639 18.3408C19.9637 18.7549 19.628 19.0908 19.2139 19.0908C18.7999 19.0907 18.464 18.7548 18.4639 18.3408C18.4637 15.0036 15.3594 11.4425 9.98242 11.4424C4.60527 11.4424 1.50015 15.0035 1.5 18.3408C1.49983 18.7549 1.16411 19.0908 0.75 19.0908C0.335892 19.0908 0.000170933 18.7549 0 18.3408C0.000111849 14.959 2.41882 11.7148 6.38379 10.4736C4.67378 9.46296 3.51494 7.74506 3.51465 5.72168C3.51465 2.4672 6.51064 0.000114566 9.97949 0ZM9.97949 1.5C7.13586 1.50011 5.01465 3.48518 5.01465 5.72168C5.01512 7.95787 7.13618 9.94227 9.97949 9.94238C12.8229 9.94238 14.9439 7.95794 14.9443 5.72168C14.9443 3.48511 12.8232 1.5 9.97949 1.5Z" fill="#FFFEFA"/>
</svg>
