<svg width="137" height="24" viewBox="0 0 137 24" fill="none" xmlns="http://www.w3.org/2000/svg">
<path d="M0 24V8H2.40657L9.40138 18.358L11.628 22.3419H10.8408L10.5484 17.8627V8H13V24H10.481L3.75606 14.0296L1.16955 9.52894H2.13668L2.40657 14.3742V24H0Z" fill="#FFA100"/>
<path d="M123 24V8H125.592L133.125 18.358L135.522 22.3419H134.675L134.36 17.8627V8H137V24H134.287L127.045 14.0296L124.26 9.52894H125.301L125.592 14.3742V24H123Z" fill="#FFA100"/>
<path d="M54.7891 24H52V8.17044C52.1418 8.17044 52.2797 8.17044 52.4136 8.17044C52.5476 8.17044 52.6815 8.17044 52.8155 8.17044C52.9494 8.17044 53.0873 8.17044 53.2291 8.17044C53.7885 8.17044 54.4503 8.14203 55.2145 8.08522C55.9788 8.02841 56.8218 8 57.7436 8C58.6261 8 59.4336 8.08522 60.1664 8.25566C60.8991 8.419 61.5333 8.68176 62.0691 9.04394C62.6127 9.39902 63.0303 9.86418 63.3218 10.4394C63.6212 11.0075 63.7709 11.7 63.7709 12.5166C63.7709 13.4683 63.5936 14.2707 63.2391 14.9241C62.8845 15.5775 62.3764 16.0923 61.7145 16.4687C61.0606 16.8451 60.2806 17.0972 59.3745 17.225C59.0515 17.2676 58.7167 17.3031 58.37 17.3316C58.0312 17.3529 57.5861 17.3706 57.0345 17.3848C56.483 17.3919 55.7345 17.3955 54.7891 17.3955V24ZM54.7891 15.6059C54.9545 15.6272 55.2067 15.6449 55.5455 15.6591C55.8921 15.6662 56.2427 15.6698 56.5973 15.6698C56.9518 15.6698 57.2315 15.6698 57.4364 15.6698C58.5709 15.6698 59.4455 15.4212 60.06 14.9241C60.6745 14.4199 60.9818 13.6529 60.9818 12.6232C60.9818 12.0124 60.8676 11.5011 60.6391 11.0892C60.4106 10.6702 60.0285 10.3577 59.4927 10.1518C58.9649 9.93875 58.2479 9.83222 57.3418 9.83222C56.8849 9.83222 56.4318 9.84998 55.9827 9.88548C55.5415 9.91389 55.1436 9.96005 54.7891 10.024V15.6059ZM61.88 24C61.7776 23.858 61.6909 23.7124 61.62 23.5632C61.5491 23.4141 61.423 23.1691 61.2418 22.8282C60.9976 22.3524 60.7573 21.8162 60.5209 21.2197C60.2845 20.6161 60.0245 20.0302 59.7409 19.462C59.4652 18.8939 59.1461 18.4146 58.7836 18.024C58.4212 17.6263 57.9958 17.3955 57.5073 17.3316L58.5709 16.5859L60.2255 16.7137C60.6903 16.8913 61.1039 17.2108 61.4664 17.6724C61.8367 18.134 62.1755 18.6702 62.4827 19.281C62.7979 19.8846 63.0973 20.4989 63.3809 21.1238C63.6724 21.7488 63.9758 22.3169 64.2909 22.8282C64.4091 23.0271 64.5273 23.2259 64.6455 23.4248C64.7636 23.6165 64.8818 23.8083 65 24H61.88Z" fill="#FFA100"/>
<path d="M80.8695 24L74 8H77.0764L81.2525 18.3353L82.0927 20.8898L82.9699 18.3353L86.9606 8H90L83.2911 24H80.8695Z" fill="#FFA100"/>
<path d="M101.941 24H99L105.689 8H108.405L115 24H111.976L107.575 12.1012L107.077 10.5779L106.555 12.1012L101.941 24ZM102.321 20.1119L102.795 18.269H110.884L111.383 20.1119H102.321Z" fill="#FFA100"/>
<path d="M34.1758 0.0318202C34.0998 0.106251 34.0721 0.202852 34.0596 0.438813C34.0471 0.666064 33.9988 1.09919 33.9693 1.24646C33.8907 1.63604 33.8067 1.86566 33.678 2.04145C33.593 2.15705 33.4912 2.26157 33.2418 2.48565C33.1095 2.60522 32.9478 2.75883 32.8834 2.82613C32.4893 3.24184 31.9575 3.87449 31.844 4.06453C31.7832 4.16509 31.7448 4.32345 31.7269 4.54437C31.7215 4.61167 31.7153 4.68373 31.7135 4.70432C31.7108 4.72411 31.709 4.90939 31.709 5.11606C31.7081 5.49296 31.7233 5.85403 31.7493 6.128C31.7564 6.20401 31.7671 6.31486 31.7716 6.37346C31.777 6.43205 31.7832 6.4859 31.785 6.49223C31.7877 6.49856 31.793 6.54449 31.7984 6.59438C31.8172 6.79312 31.8771 7.10509 31.9244 7.25633C31.962 7.3751 31.9986 7.501 32.0451 7.66808C32.0719 7.76389 32.1014 7.86682 32.1103 7.8977C32.1193 7.92779 32.1336 7.98163 32.1425 8.01647C32.1514 8.05131 32.1657 8.10832 32.1747 8.14316C32.2203 8.32449 32.2274 8.35379 32.2274 8.37041C32.2274 8.38783 32.2462 8.46068 32.281 8.58262C32.3248 8.73148 32.3811 8.94844 32.4133 9.08938C32.4669 9.32217 32.4687 9.33326 32.4821 9.41007C32.4893 9.44886 32.4991 9.49716 32.5036 9.51696C32.5089 9.53676 32.517 9.58585 32.5223 9.62702C32.5277 9.6682 32.534 9.70383 32.5358 9.707C32.5375 9.70937 32.5456 9.76717 32.5536 9.83448C32.5617 9.90178 32.5697 9.96196 32.5715 9.96909C32.5778 9.98651 32.601 10.289 32.6117 10.4822C32.6314 10.8409 32.5965 11.3128 32.5232 11.6913C32.5134 11.7404 32.5018 11.7934 32.4964 11.8101C32.492 11.8275 32.4794 11.8726 32.4687 11.9122C32.4196 12.1022 32.3499 12.2804 32.2569 12.4546C32.18 12.5979 32.029 12.8054 31.9468 12.8806C31.8163 13.0002 31.6027 13.1118 31.07 13.3375C30.7831 13.4594 30.4721 13.5988 30.3273 13.67C30.0359 13.8133 29.5721 14.1451 29.0948 14.5505C28.5175 15.0407 28.3521 15.1982 28.202 15.4017C28.151 15.4706 28.0626 15.6203 28.0626 15.6369C28.0626 15.6424 28.0563 15.6567 28.0492 15.6686C28.0331 15.6963 28 15.8356 28 15.8752C28 15.9402 28.0366 16.0613 28.0822 16.1437C28.1207 16.2157 28.1367 16.2355 28.2038 16.2941C28.3986 16.4651 28.6292 16.5459 29.0126 16.5768C29.1637 16.5894 29.1842 16.5894 29.3308 16.5768C29.573 16.557 29.867 16.496 30.1244 16.4121C30.1503 16.4042 30.195 16.3899 30.2227 16.3812C30.2513 16.3717 30.2871 16.3598 30.3014 16.3543C30.3166 16.3487 30.3622 16.3329 30.4033 16.3186C30.4444 16.3052 30.4846 16.2909 30.4927 16.287C30.5061 16.2806 30.5865 16.2513 30.6902 16.2157C30.7125 16.2086 30.8108 16.1706 30.9091 16.1326C31.0074 16.0946 31.1165 16.0534 31.1504 16.0407C31.1853 16.028 31.2255 16.0122 31.2398 16.0059C31.2952 15.9829 31.3542 15.9623 31.3641 15.9623C31.3694 15.9623 31.3864 15.9568 31.4007 15.9497C31.4159 15.9425 31.4436 15.9322 31.4633 15.9267C31.4829 15.9212 31.5455 15.9014 31.6018 15.8831C31.9503 15.7715 32.4276 15.6424 32.6609 15.5957C32.8655 15.5545 32.9281 15.5474 33.0854 15.5466C33.2302 15.5466 33.2463 15.5482 33.3026 15.5664C33.3786 15.591 33.4688 15.6504 33.5251 15.7129C33.5671 15.758 33.5886 15.7953 33.7503 16.0906C33.8755 16.3194 33.9264 16.4533 33.9702 16.6686C33.9863 16.7462 33.989 16.7858 33.9863 16.9204L33.9836 17.0796L34.0131 17.1033C34.0292 17.116 34.0498 17.1263 34.0596 17.1263C34.0694 17.1263 34.0801 17.1326 34.0846 17.1398C34.0918 17.154 34.0882 17.3607 34.0694 18.0369C34.0641 18.2396 34.0551 18.5777 34.0498 18.7891C34.0444 19.0005 34.0372 19.2927 34.0328 19.4384C34.0283 19.5841 34.022 20.0972 34.0194 20.5786C34.0122 21.7592 33.9979 22.0854 33.9425 22.3721C33.9371 22.3982 33.9282 22.4481 33.9211 22.4829C33.9148 22.5178 33.9005 22.5819 33.8898 22.6254C33.879 22.669 33.863 22.7347 33.8549 22.7719C33.8397 22.8345 33.7807 23.0633 33.7512 23.1718C33.652 23.5392 33.6306 23.6516 33.6306 23.7957V23.9113L33.6574 23.9383C33.6726 23.9541 33.7048 23.9723 33.7343 23.9826C33.8326 24.0159 34.1141 24 34.3474 23.947C34.3787 23.9406 34.4278 23.9296 34.4573 23.9224C34.6128 23.8876 34.6861 23.8591 34.754 23.8068C34.8148 23.7593 34.8398 23.7079 34.8398 23.635C34.838 23.5368 34.7916 23.4434 34.6781 23.3112C34.6441 23.2716 34.6074 23.2233 34.5967 23.205C34.5216 23.0728 34.493 22.8859 34.4948 22.5225C34.4957 22.3111 34.4984 22.2636 34.5145 22.182C34.5449 22.0308 34.6119 21.7893 34.6834 21.5763C34.6932 21.5478 34.7093 21.4963 34.721 21.4615C34.7317 21.4266 34.7478 21.3768 34.7567 21.3506C34.7656 21.3245 34.7808 21.2746 34.7916 21.2398C34.8023 21.2049 34.8148 21.1653 34.8193 21.1527C34.8559 21.0497 34.9104 20.809 34.9792 20.444C34.99 20.3894 35.0043 20.3149 35.0114 20.2777C35.0186 20.2405 35.0266 20.1922 35.0302 20.1708C35.0329 20.1486 35.0391 20.1186 35.0436 20.1035C35.0481 20.0877 35.057 20.0378 35.0642 19.9927C35.0811 19.8834 35.0936 19.8169 35.1151 19.7147C35.124 19.6688 35.1321 19.6213 35.1321 19.6086C35.1321 19.5968 35.1401 19.5485 35.1491 19.5025C35.166 19.4202 35.1741 19.3711 35.2 19.2127C35.2179 19.0979 35.2456 18.9039 35.2518 18.8485C35.2724 18.6608 35.2858 18.5215 35.3019 18.3536C35.3117 18.2467 35.326 18.1058 35.3332 18.0408C35.3403 17.9751 35.351 17.8666 35.3555 17.7993C35.3609 17.732 35.3662 17.6711 35.3689 17.6647C35.3707 17.6584 35.3787 17.5816 35.3868 17.4945C35.3948 17.4074 35.4029 17.3306 35.4047 17.3242C35.4065 17.3179 35.4127 17.2759 35.4181 17.2308C35.4431 17.0067 35.5995 16.4604 35.7416 16.0969C35.7559 16.0597 35.7738 16.0138 35.7809 15.994C35.7881 15.9742 35.797 15.9512 35.8024 15.9425C35.8069 15.9338 35.8149 15.914 35.8194 15.899C35.8292 15.8681 35.8542 15.8063 35.8828 15.7406C35.9936 15.4872 36.0508 15.3138 36.0875 15.127C36.1483 14.8174 36.1483 14.5561 36.0884 14.0343C36.0794 13.9511 36.0687 13.8442 36.066 13.7967C36.0634 13.7484 36.0553 13.6312 36.0482 13.5354C36.0419 13.4396 36.0312 13.2971 36.0258 13.2187C35.9927 12.7499 35.9731 12.5504 35.923 12.1814C35.8632 11.734 35.856 11.6826 35.8471 11.5741C35.8426 11.5187 35.8337 11.4403 35.8274 11.3999C35.8104 11.2787 35.8122 10.8939 35.8319 10.7799C35.8524 10.6603 35.8801 10.5059 35.8971 10.4236C35.9034 10.3887 35.9177 10.3175 35.9275 10.2652C35.9373 10.213 35.9516 10.1449 35.9579 10.1148C35.965 10.0839 35.9776 10.0293 35.9856 9.99205C36.016 9.85031 36.0607 9.6587 36.0893 9.55022C36.1286 9.40056 36.1438 9.34434 36.1554 9.30713C36.1626 9.28496 36.1706 9.25329 36.1733 9.23587C36.1769 9.21845 36.1849 9.18598 36.1912 9.1646C36.1983 9.14243 36.2126 9.08938 36.2233 9.04583C36.2484 8.94289 36.3771 8.48681 36.3949 8.43613C36.4021 8.41396 36.4191 8.37121 36.4325 8.34112C36.445 8.31024 36.4593 8.27461 36.4638 8.26194C36.4682 8.24848 36.4763 8.23105 36.4816 8.22234C36.4861 8.21363 36.4959 8.19146 36.504 8.17246C36.5326 8.1012 36.5451 8.07111 36.5504 8.06002C36.5639 8.02835 36.6193 7.89137 36.6389 7.83831C36.6872 7.70925 36.7855 7.44082 36.8213 7.33947C36.8427 7.28088 36.8668 7.21278 36.8758 7.18903C36.9625 6.94911 37 6.63634 37 6.14383C37 5.85165 36.9884 5.63153 36.9625 5.38369C36.9455 5.22375 36.9419 5.14615 36.9419 4.83338C36.941 4.51428 36.9392 4.4644 36.9258 4.42956C36.9053 4.37413 36.8329 4.24981 36.7837 4.18409C36.7614 4.15321 36.7077 4.07878 36.6648 4.01781C36.6219 3.95684 36.5656 3.87845 36.5397 3.84361C36.5138 3.80877 36.4557 3.7288 36.4101 3.66545C36.2412 3.43266 36.1054 3.25609 36.0392 3.18245C35.8444 2.96787 35.4654 2.60442 35.2921 2.46427C35.1589 2.35738 35.0847 2.26711 34.9891 2.0937C34.9551 2.03274 34.9069 1.93297 34.8818 1.872C34.8568 1.81103 34.8219 1.73105 34.8041 1.69384C34.7522 1.58219 34.7022 1.47767 34.6888 1.45233C34.6816 1.43887 34.6727 1.4175 34.6682 1.40483C34.6638 1.39137 34.6495 1.35573 34.6369 1.32564C34.5815 1.19262 34.5574 1.04059 34.5288 0.66052C34.5216 0.55996 34.5154 0.451482 34.5154 0.418226C34.5154 0.345379 34.4957 0.235316 34.4698 0.165636C34.4475 0.10625 34.4153 0.06191 34.3679 0.0246947C34.3366 0.000940321 34.3313 -0.000642934 34.2714 0.00014888C34.2088 0.000940694 34.2062 0.00173125 34.1758 0.0318202ZM34.3072 1.95672C34.3116 1.96226 34.3232 1.98285 34.3322 2.00265C34.3581 2.05649 34.4055 2.10875 34.5154 2.20456C34.6611 2.33125 34.7513 2.45556 34.948 2.80238C34.9989 2.89185 35.0525 2.98449 35.0668 3.00825C35.0811 3.032 35.1133 3.08347 35.1365 3.12306C35.3072 3.40336 35.5459 3.74701 35.6799 3.90458C35.7211 3.95368 35.797 4.03523 35.8471 4.08512C35.8971 4.135 35.9588 4.2023 35.9838 4.23477C36.1215 4.4153 36.2046 4.62988 36.2046 4.80804C36.2046 4.89435 36.1947 4.93948 36.1063 5.257C36.0973 5.28947 36.0848 5.33381 36.0794 5.35598C36.0741 5.37736 36.0634 5.41299 36.0571 5.43516C36.05 5.45654 36.0383 5.4993 36.0312 5.53018C36.024 5.56027 36.0079 5.62282 35.9963 5.66874C35.9543 5.82948 35.9516 5.86986 35.9507 6.31407C35.9499 6.72819 35.9498 6.73453 35.9302 6.77095C35.9069 6.81529 35.8649 6.87389 35.7845 6.97128C35.6549 7.12806 35.5968 7.22783 35.5521 7.37114C35.5119 7.50021 35.4905 7.54297 35.4547 7.56751C35.4127 7.59602 35.368 7.59444 35.2885 7.56118C35.0999 7.48358 34.9632 7.33235 34.922 7.15894C34.897 7.05125 34.9069 6.91506 34.948 6.805C34.9542 6.78758 34.9685 6.74799 34.9792 6.7179C35.0096 6.62921 35.0409 6.54766 35.065 6.48827C35.0776 6.45739 35.0919 6.42255 35.0963 6.40988C35.1062 6.38296 35.1196 6.37346 35.1482 6.37346C35.2125 6.37346 35.309 6.29032 35.3689 6.18263C35.3823 6.15888 35.3966 6.13275 35.402 6.12404C35.4279 6.08128 35.4538 5.98626 35.4538 5.93004C35.4538 5.86353 35.4386 5.83107 35.3886 5.79385L35.36 5.77247L35.3591 5.58798C35.3582 5.38923 35.3439 5.29105 35.2956 5.15011C35.1607 4.75737 34.8202 4.54833 34.3143 4.54833C33.8925 4.54833 33.6038 4.68373 33.4527 4.95374C33.4152 5.02183 33.3812 5.11368 33.3562 5.21741C33.3356 5.30372 33.333 5.59907 33.3526 5.69487L33.3651 5.75664L33.3374 5.78197C33.2668 5.84769 33.2543 5.92925 33.2945 6.05832C33.3482 6.23014 33.4322 6.3212 33.5341 6.31882C33.5832 6.31803 33.5948 6.32991 33.5948 6.37979C33.5948 6.4083 33.6386 6.53103 33.6976 6.67039C33.7772 6.85647 33.8031 7.0275 33.7709 7.14548C33.736 7.27375 33.619 7.39807 33.4349 7.50417C33.3732 7.53901 33.358 7.54455 33.3491 7.53584C33.3428 7.5303 33.3285 7.48992 33.3187 7.44637C33.274 7.26108 33.1927 7.08688 33.0872 6.94673C33.0568 6.90793 32.9844 6.82479 32.9245 6.76145C32.7351 6.56112 32.7368 6.56587 32.7279 6.06069C32.7208 5.66003 32.7208 5.65608 32.6689 5.43912C32.6359 5.29659 32.5617 5.06538 32.4973 4.90068C32.4866 4.87376 32.483 4.83101 32.483 4.72649C32.4821 4.60138 32.4839 4.58238 32.5036 4.53249C32.5465 4.41689 32.5921 4.32899 32.6904 4.17222C32.727 4.11362 32.7699 4.04553 32.7842 4.02177C32.7994 3.99802 32.8271 3.95526 32.8459 3.92755C32.8646 3.90062 32.8798 3.87608 32.8798 3.8737C32.8798 3.87133 32.887 3.86024 32.8968 3.84916C32.9058 3.83728 32.9236 3.81194 32.9353 3.79215C32.9969 3.69554 33.3026 3.22521 33.3088 3.21808C33.3124 3.21333 33.324 3.19749 33.3339 3.18245C33.3437 3.1674 33.4107 3.06368 33.4831 2.95282C33.5555 2.84197 33.619 2.74378 33.6252 2.73507C33.7629 2.52287 33.8344 2.43498 34.1007 2.1523C34.1847 2.06282 34.2607 1.97968 34.2696 1.96781C34.2866 1.94484 34.2946 1.94247 34.3072 1.95672ZM33.7986 14.4951C33.8031 14.522 33.6744 14.6091 33.5501 14.6638C33.518 14.6772 33.4849 14.6923 33.476 14.6962C33.4608 14.7033 33.366 14.7303 33.282 14.7509C33.1998 14.7706 33.0756 14.7833 32.9111 14.7873C32.7637 14.7912 32.7386 14.7904 32.7234 14.7794L32.7056 14.7667L32.7234 14.754C32.7431 14.7406 32.9272 14.6614 32.9612 14.6519C32.9728 14.6487 32.9871 14.6432 32.9916 14.64C33.0023 14.6329 33.0952 14.6012 33.1703 14.5782C33.3634 14.5212 33.4921 14.4991 33.7468 14.4793C33.7906 14.4753 33.7959 14.4769 33.7986 14.4951Z" fill="#07E9C7"/>
</svg>
