<svg width="116" height="125" viewBox="0 0 116 125" fill="none" xmlns="http://www.w3.org/2000/svg">
<path fill-rule="evenodd" clip-rule="evenodd" d="M110.288 57.1781C106.421 50.8024 99.8753 44.0083 89.7857 44.0767C75.5823 44.172 70.0393 55.463 65.3021 64.9209C63.8252 67.8663 61.4618 72.4151 58.1331 73.0613C54.1809 73.8277 51.9749 71.5575 49.3732 70.4804C54.8106 66.085 59.6866 60.9521 60.5234 52.8116C61.8698 39.6937 53.7666 31.4455 43.0059 30.5776C32.5931 29.7366 24.2123 32.5889 17.5239 36.3339C15.7218 37.3426 12.0679 39.5445 11.9498 41.2969C11.8649 42.5625 16.4488 48.729 20.1131 57.3769C24.8627 54.3258 31.5864 48.7476 39.2235 48.0475C52.4844 46.8316 53.5326 59.7176 40.4166 62.1432C34.9793 63.1457 30.1654 61.7392 25.6851 60.9521C28.2038 66.7499 24.3801 77.6598 28.8708 81.5995C33.0902 85.3011 39.004 80.8538 43.7992 81.005C50.7776 81.2246 55.6971 88.899 52.3602 96.4927C48.0683 106.255 31.4766 108.705 21.5071 102.448C2.45259 90.4878 5.8807 67.9016 2.39459 67.9016C-2.20592 67.8974 -4.35394 124.282 36.6343 124.282C53.0396 124.282 66.8473 111.951 65.5009 94.5021C65.1094 89.4252 63.1748 84.922 61.9175 81.0009C65.2917 81.3655 68.6059 81.0713 71.6715 80.6053C67.4646 87.8219 70.2154 101.385 73.861 106.81C79.3315 114.946 92.377 117.749 101.93 111.378C109.859 106.089 115.123 97.3979 115.868 85.1706C116.548 73.923 114.584 64.258 110.288 57.1781ZM88.9882 95.2975C79.5531 96.298 73.5668 91.3515 72.8667 80.4085C80.7669 77.1585 83.3768 63.4191 92.9694 57.7746C101.271 52.8903 105.959 62.8122 106.506 69.8859C107.533 83.1738 100.308 94.094 88.9882 95.2975ZM72.9641 23.8249C72.9641 23.8249 84.425 15.9371 84.4084 11.813C84.3918 7.72414 72.9641 0 72.9641 0C72.9641 0 61.5343 7.68892 61.5198 11.813C61.5011 15.9723 72.9641 23.8249 72.9641 23.8249Z" fill="black"/>
<path fill-rule="evenodd" clip-rule="evenodd" d="M70.0787 40.3026C86.3824 43.971 107.104 31.2673 107.104 27.0003C107.104 21.5608 97.3089 16.3928 95.5586 14.0977C90.3035 20.8607 80.8332 29.4631 68.6826 26.2069C56.5423 22.9549 51.5648 6.9494 51.5648 6.9494C49.9263 12.1216 49.947 18.3813 51.7636 23.2283C54.4875 30.4947 62.311 38.5544 70.0787 40.3026Z" fill="black"/>
</svg>
