<svg width="313" height="455" viewBox="0 0 313 455" fill="none" xmlns="http://www.w3.org/2000/svg">
<path d="M213.796 0C185.031 35.0313 171.134 57.8182 171.125 57.8335C171.063 57.9449 161.261 75.5515 154.197 92.6189C142.824 120.1 144.821 137.924 146.738 145.568C150.458 145.301 154.214 145.165 158.002 145.165C243.605 145.165 313 214.524 313 300.082C313 385.641 243.605 455 158.002 455C89.3422 455 31.1094 410.38 10.7471 348.571C9.51232 345.435 8.49192 342.341 7.70327 339.305C-5.91738 286.884 2.66625 248.784 2.69547 248.655C8.57954 213.13 16.1258 190.952 32.6996 161.866C50.3226 132.012 69.1372 106.526 89.1409 85.4096C110.054 64.433 129.814 47.9306 148.421 35.9029C167.136 22.9875 213.644 0.0751757 213.796 0Z" fill="#012C39"/>
</svg>
