<svg width="143" height="234" viewBox="0 0 143 234" fill="none" xmlns="http://www.w3.org/2000/svg">
<path d="M48.1441 233.939C61.1206 212.028 66.8867 198.189 66.8867 198.189C66.8957 198.165 70.8434 187.531 73.3118 177.431C78.7529 155.169 71.786 145.141 71.786 145.141C71.7448 145.14 53.5337 144.642 45.7993 140.363C33.4434 136.245 20.7579 125.536 12.6167 114.013C4.17564 102.066 0.000171392 87.2977 0.00015391 71.2846C0.00015391 61.47 2.31525 52.1094 5.93098 43.328C9.54671 34.5466 14.8669 26.9788 21.5818 20.2636C27.7802 14.0649 35.0302 9.56783 43.4929 5.60117C51.4006 2.30629 61.4674 -0.00016818 71.2815 -0.000187814C90.9097 -0.000187814 107.439 6.97329 120.869 20.9203C134.299 34.8673 141.53 51.6555 142.563 71.2846C144.113 91.9468 141.53 111.059 134.815 128.622C127.584 146.702 119.319 162.457 110.022 175.887C100.208 189.317 90.6517 200.165 81.3541 208.43C72.0662 217.202 48.1938 233.904 48.1441 233.939Z" fill="#FFF8E0"/>
<path d="M3.32473e-05 72.488C3.32473e-05 32.4539 31.7164 -0.000187814 70.8405 -0.000187814C109.965 -0.000187814 141.681 32.4539 141.681 72.488C141.681 112.522 109.965 144.976 70.8405 144.976C31.7164 144.976 3.32473e-05 112.522 3.32473e-05 72.488Z" fill="#FFF8E0"/>
</svg>
