<svg width="134" height="112" viewBox="0 0 134 112" fill="none" xmlns="http://www.w3.org/2000/svg">
<path d="M131.795 47.6832C132.932 48.9505 133.5 50.4565 133.5 52.2012C133.5 53.9459 132.932 55.4498 131.795 56.7129L109.783 79.0495C108.646 80.3168 107.2 80.9505 105.443 80.9505C103.686 80.9505 102.239 80.3168 101.103 79.0495L92.2669 70.1782C91.0268 68.9109 90.4068 67.407 90.4068 65.6665C90.4068 63.9261 91.0268 62.4201 92.2669 61.1485C93.507 59.9868 94.9806 59.4059 96.6878 59.4059C98.395 59.4059 99.8666 59.9868 101.103 61.1485L105.443 65.5842L122.959 47.6832C124.199 46.5215 125.671 45.9406 127.374 45.9406C129.077 45.9406 130.551 46.5215 131.795 47.6832ZM58.3193 110.416L42.8182 96C35.3776 89.1353 28.9973 83.0099 23.6773 77.6238C18.3573 72.2376 13.9653 67.1683 10.5014 62.4158C7.03736 57.6634 4.5055 53.0693 2.90578 48.6337C1.30606 44.198 0.504134 39.5512 0.5 34.6931C0.5 24.7657 3.75525 16.5027 10.2657 9.90416C16.7762 3.30561 24.8885 0.00422442 34.6026 0C39.9763 0 45.0917 1.13637 49.9487 3.40911C54.8058 5.68185 58.9911 8.92832 62.5047 13.1485C66.0183 8.92409 70.2036 5.67763 75.0606 3.40911C79.9176 1.14059 85.033 0.00422442 90.4068 0C99.1908 0 106.555 2.72053 112.499 8.16159C118.443 13.6026 122.137 19.9646 123.579 27.2475C121.512 26.4026 119.342 25.8746 117.069 25.6634C114.795 25.4521 112.47 25.3465 110.093 25.3465C101.309 25.3465 93.2486 28.9648 85.9114 36.2012C78.5742 43.4376 74.9056 52.4927 74.9056 63.3663C74.9056 68.4356 75.9907 73.5852 78.1608 78.8151C80.331 84.0449 83.3796 88.2947 87.3065 91.5644C85.343 93.3597 82.7864 95.6578 79.6365 98.4586C76.4867 101.259 73.773 103.714 71.4953 105.822L66.535 110.416C65.3982 111.472 64.0279 112 62.4241 112C60.8202 112 59.452 111.472 58.3193 110.416Z" fill="#00EBC7"/>
</svg>
